{
    "accessors": [
        {
            "bufferView": 2,
            "componentType": 5126,
            "count": 51072,
            "max": [3.0961177349090576, 3.094499349594116, 20.000009536743164],
            "min": [-3.0961172580718994, -3.094499349594116, -19.9999942779541],
            "type": "VEC3"
        },
        {
            "bufferView": 2,
            "byteOffset": 612864,
            "componentType": 5126,
            "count": 51072,
            "max": [1.0, 1.0, 1.0],
            "min": [-1.0, -1.0, -1.0],
            "type": "VEC3"
        },
        {
            "bufferView": 1,
            "componentType": 5126,
            "count": 51072,
            "max": [0.9378634095191956, 0.9856157898902893],
            "min": [0.014384198933839798, 0.014384198933839798],
            "type": "VEC2"
        },
        {
            "bufferView": 1,
            "byteOffset": 408576,
            "componentType": 5126,
            "count": 51072,
            "max": [0.9378634095191956, 0.9856157898902893],
            "min": [0.014384198933839798, 0.014384198933839798],
            "type": "VEC2"
        },
        {
            "bufferView": 1,
            "byteOffset": 817152,
            "componentType": 5126,
            "count": 51072,
            "max": [0.9378634095191956, 0.9856157898902893],
            "min": [0.014384198933839798, 0.014384198933839798],
            "type": "VEC2"
        },
        {
            "bufferView": 0,
            "componentType": 5125,
            "count": 256512,
            "type": "SCALAR"
        }
    ],
    "asset": {
        "extras": {
            "author": "ackermankenny (https://sketchfab.com/ackermankenny)",
            "license": "CC-BY-4.0 (http://creativecommons.org/licenses/by/4.0/)",
            "source": "https://sketchfab.com/3d-models/dna-and-description-2364b917271b4652a4bd0625548d6862",
            "title": "DNA and Description"
        },
        "generator": "Sketchfab-14.10.0",
        "version": "2.0"
    },
    "bufferViews": [
        {
            "buffer": 0,
            "byteLength": 1026048,
            "name": "floatBufferViews",
            "target": 34963
        },
        {
            "buffer": 0,
            "byteLength": 1225728,
            "byteOffset": 1026048,
            "byteStride": 8,
            "name": "floatBufferViews",
            "target": 34962
        },
        {
            "buffer": 0,
            "byteLength": 1225728,
            "byteOffset": 2251776,
            "byteStride": 12,
            "name": "floatBufferViews",
            "target": 34962
        }
    ],
    "buffers": [
        {
            "byteLength": 3477504,
            "uri": "scene.bin"
        }
    ],
    "extensionsUsed": ["KHR_materials_unlit"],
    "images": [
        {
            "uri": "textures/Material_baseColor.png"
        }
    ],
    "materials": [
        {
            "doubleSided": true,
            "extensions": {
                "KHR_materials_unlit": {}
            },
            "name": "Material",
            "pbrMetallicRoughness": {
                "baseColorFactor": [
                    0.7360022430544549, 0.7360022430544549, 0.7360022430544549,
                    1.0
                ],
                "baseColorTexture": {
                    "index": 0
                },
                "metallicFactor": 0.0
            }
        }
    ],
    "meshes": [
        {
            "name": "DNA_Material_0",
            "primitives": [
                {
                    "attributes": {
                        "NORMAL": 1,
                        "POSITION": 0,
                        "TEXCOORD_0": 2,
                        "TEXCOORD_1": 3,
                        "TEXCOORD_2": 4
                    },
                    "indices": 5,
                    "material": 0,
                    "mode": 4
                }
            ]
        }
    ],
    "nodes": [
        {
            "children": [1],
            "matrix": [
                0.6187759041786194, -0.7294420003890992, 0.29160028696060164,
                0.0, 0.0, -0.37119695544242837, -0.9285541772842408, 0.0,
                0.785567581653595, 0.5745669603347778, -0.22968773543834672,
                0.0, 0.0, 0.0, 0.0, 1.0
            ],
            "name": "Sketchfab_model"
        },
        {
            "children": [2],
            "matrix": [
                0.009999999776482582, 0.0, 0.0, 0.0, 0.0, 0.0,
                0.009999999776482582, 0.0, 0.0, -0.009999999776482582, 0.0, 0.0,
                0.0, 0.0, 0.0, 1.0
            ],
            "name": "DNA.fbx"
        },
        {
            "children": [3],
            "name": "RootNode"
        },
        {
            "children": [4],
            "matrix": [
                100.0, 0.0, 0.0, 0.0, -0.0, -1.629206793918314e-5,
                -99.99999999999868, 0.0, 0.0, 99.99999999999868,
                -1.629206793918314e-5, 0.0, -7.899931915744673e-6,
                1899.9993896484375, 3.279680868217838e-6, 1.0
            ],
            "name": "DNA"
        },
        {
            "mesh": 0,
            "name": "DNA_Material_0"
        }
    ],
    "samplers": [
        {
            "magFilter": 9729,
            "minFilter": 9987,
            "wrapS": 10497,
            "wrapT": 10497
        }
    ],
    "scene": 0,
    "scenes": [
        {
            "name": "Sketchfab_Scene",
            "nodes": [0]
        }
    ],
    "textures": [
        {
            "sampler": 0,
            "source": 0
        }
    ]
}
